<svg width="622" height="634" viewBox="0 0 622 634" fill="none" xmlns="http://www.w3.org/2000/svg">
<g id="Group 8">
<path id="Ellipse 11" d="M622 317C622 492.074 482.761 634 311 634C139.239 634 0 492.074 0 317C0 141.926 139.239 0 311 0C482.761 0 622 141.926 622 317Z" fill="white" fill-opacity="0.21"/>
<g id="Group 6">
<path id="Vector" d="M429.079 453.227C428.5 452.873 427.898 452.495 427.355 452.129C402.967 435.972 422.822 399.177 448.119 413.693C448.697 414.021 449.299 414.374 449.866 414.728C457.028 419.057 463.293 424.897 468.279 431.895C473.265 438.893 476.868 446.902 478.869 455.436C479.082 456.339 478.953 457.296 478.512 458.099C478.07 458.902 477.35 459.487 476.509 459.727C468.603 462.134 460.323 462.798 452.17 461.681C444.017 460.563 436.161 457.687 429.079 453.227Z" fill="#DBA085"/>
<path id="Vector_2" d="M173.101 414.538L174.801 413.529C199.271 399.505 218.843 435.744 195.246 451.396C194.703 451.75 194.148 452.116 193.581 452.457C186.701 456.776 179.065 459.537 171.145 460.568C163.226 461.599 155.193 460.879 147.544 458.452C146.729 458.196 146.036 457.614 145.61 456.827C145.184 456.04 145.056 455.108 145.254 454.224C147.105 445.921 150.531 438.114 155.322 431.287C160.112 424.46 166.164 418.759 173.101 414.538Z" fill="#DBA085"/>
<path id="Vector_3" d="M291.605 486.058C291.605 485.376 291.605 484.707 291.605 484.026C292.455 454.994 330.748 454.994 331.61 484.026C331.61 484.707 331.61 485.376 331.61 486.058C331.676 494.412 330.133 502.691 327.079 510.38C324.025 518.069 319.524 525.005 313.856 530.754C313.255 531.367 312.456 531.709 311.625 531.709C310.794 531.709 309.996 531.367 309.394 530.754C303.72 525.008 299.212 518.074 296.152 510.385C293.091 502.695 291.544 494.415 291.605 486.058V486.058Z" fill="#DBA085"/>
<!-- <path id="centerDrop" d="M331.645 141.626C331.645 142.307 331.645 142.989 331.645 143.658C330.784 172.69 292.502 172.69 291.652 143.658C291.652 142.989 291.652 142.307 291.652 141.626C291.594 133.272 293.144 124.995 296.206 117.31C299.269 109.624 303.778 102.696 309.453 96.9545C310.055 96.3418 310.853 96 311.684 96C312.515 96 313.314 96.3418 313.915 96.9545C319.576 102.704 324.071 109.636 327.121 117.32C330.171 125.005 331.711 133.278 331.645 141.626V141.626Z" stroke="#64628E" stroke-width="10" stroke-miterlimit="10"/> -->
<path id="Vector_4" d="M451.2 218.283L449.748 219.545C428.559 237.835 403.569 206.733 423.637 187.092C424.097 186.638 424.569 186.184 425.053 185.742C430.952 180.24 437.847 176.095 445.307 173.563C452.768 171.031 460.636 170.167 468.423 171.024C469.25 171.119 470.012 171.548 470.554 172.224C471.096 172.899 471.376 173.77 471.338 174.659C470.957 183.018 468.973 191.204 465.509 198.709C462.044 206.213 457.174 212.876 451.2 218.283V218.283Z" stroke="#64628E" stroke-width="10" stroke-miterlimit="10"/>
<path id="Vector_5" d="M187.963 178.294C188.506 178.673 189.037 179.064 189.556 179.468C211.984 196.66 190.312 231.221 166.939 215.531C166.396 215.178 165.853 214.799 165.322 214.42C158.698 209.747 153.045 203.667 148.713 196.557C144.382 189.447 141.464 181.461 140.143 173.094C139.999 172.204 140.181 171.289 140.651 170.539C141.122 169.789 141.845 169.262 142.669 169.067C150.407 167.202 158.421 167.059 166.213 168.646C174.005 170.234 181.408 173.518 187.963 178.294V178.294Z" stroke="#64628E" stroke-width="10" stroke-miterlimit="10"/>
<path id="Vector_6" d="M422.287 288.881C410.917 283.154 398.248 281.135 385.833 283.072C373.418 285.008 361.794 290.815 352.386 299.781C341.244 289.169 327.053 283.042 312.212 282.435C297.372 281.828 282.793 286.779 270.941 296.451C260.187 287.687 247.163 282.784 233.699 282.428C220.235 282.073 207.006 286.284 195.869 294.47C201.878 267.269 216.054 242.985 236.182 225.41C256.31 207.836 281.256 197.962 307.125 197.329C332.994 196.696 358.328 205.341 379.171 221.913C400.014 238.486 415.191 262.052 422.333 288.931L422.287 288.881Z" stroke="#64628E" stroke-width="10" stroke-miterlimit="10"/>
<path id="Vector_7" d="M422.173 331.141C419.942 387.779 369.596 433.068 307.801 433.068C246.005 433.068 195.659 387.779 193.428 331.141H422.173Z" fill="#DBA085"/>
<path id="Vector_8" d="M311.533 283.079V351.558" stroke="#64628E" stroke-width="10" stroke-miterlimit="10"/>
<path id="pr" d="M113.8 294.2C117.533 294.2 120.84 295.133 123.72 297C126.653 298.867 128.973 301.427 130.68 304.68C132.387 307.88 133.24 311.613 133.24 315.88C133.24 320.147 132.387 323.933 130.68 327.24C128.973 330.493 126.68 333.053 123.8 334.92C120.92 336.787 117.667 337.72 114.04 337.72C112.013 337.72 110.093 337.4 108.28 336.76C106.467 336.12 104.867 335.293 103.48 334.28C102.093 333.213 100.947 332.093 100.04 330.92C99.1867 329.747 98.6533 328.653 98.44 327.64L100.6 326.6V348.92C100.6 350.093 100.2 351.053 99.4 351.8C98.6533 352.6 97.72 353 96.6 353C95.4267 353 94.4667 352.6 93.72 351.8C92.9733 351.053 92.6 350.093 92.6 348.92V298.84C92.6 297.72 92.9733 296.76 93.72 295.96C94.4667 295.16 95.4267 294.76 96.6 294.76C97.72 294.76 98.6533 295.16 99.4 295.96C100.2 296.76 100.6 297.72 100.6 298.84V304.36L99.32 303.64C99.48 302.627 99.9867 301.587 100.84 300.52C101.693 299.4 102.76 298.36 104.04 297.4C105.373 296.44 106.867 295.667 108.52 295.08C110.227 294.493 111.987 294.2 113.8 294.2ZM112.92 301.56C110.36 301.56 108.12 302.2 106.2 303.48C104.333 304.707 102.867 306.387 101.8 308.52C100.733 310.653 100.2 313.107 100.2 315.88C100.2 318.6 100.733 321.08 101.8 323.32C102.867 325.507 104.333 327.24 106.2 328.52C108.12 329.747 110.36 330.36 112.92 330.36C115.427 330.36 117.613 329.747 119.48 328.52C121.347 327.24 122.813 325.507 123.88 323.32C125 321.08 125.56 318.6 125.56 315.88C125.56 313.16 125 310.733 123.88 308.6C122.813 306.413 121.347 304.707 119.48 303.48C117.613 302.2 115.427 301.56 112.92 301.56ZM146.288 337C145.114 337 144.154 336.627 143.408 335.88C142.661 335.08 142.288 334.093 142.288 332.92V299C142.288 297.827 142.661 296.867 143.408 296.12C144.154 295.32 145.114 294.92 146.288 294.92C147.408 294.92 148.341 295.32 149.088 296.12C149.888 296.867 150.288 297.827 150.288 299V307.96L149.488 304.52C149.914 303.027 150.554 301.64 151.408 300.36C152.314 299.08 153.381 297.96 154.608 297C155.834 296.04 157.194 295.293 158.688 294.76C160.234 294.227 161.834 293.96 163.488 293.96C164.874 293.96 166.074 294.333 167.088 295.08C168.101 295.827 168.608 296.76 168.608 297.88C168.608 299.32 168.234 300.387 167.488 301.08C166.741 301.72 165.914 302.04 165.008 302.04C164.208 302.04 163.434 301.88 162.688 301.56C161.941 301.187 161.061 301 160.048 301C158.928 301 157.781 301.293 156.608 301.88C155.434 302.467 154.368 303.347 153.408 304.52C152.448 305.64 151.674 306.973 151.088 308.52C150.554 310.067 150.288 311.8 150.288 313.72V332.92C150.288 334.093 149.888 335.08 149.088 335.88C148.341 336.627 147.408 337 146.288 337Z" fill="#64628E"/>
<path id="ur" d="M485.96 294.92C487.08 294.92 488.013 295.32 488.76 296.12C489.56 296.867 489.96 297.827 489.96 299V320.04C489.96 325.587 488.413 329.933 485.32 333.08C482.227 336.173 477.853 337.72 472.2 337.72C466.6 337.72 462.253 336.173 459.16 333.08C456.12 329.933 454.6 325.587 454.6 320.04V299C454.6 297.827 454.973 296.867 455.72 296.12C456.467 295.32 457.427 294.92 458.6 294.92C459.72 294.92 460.653 295.32 461.4 296.12C462.2 296.867 462.6 297.827 462.6 299V320.04C462.6 323.507 463.4 326.093 465 327.8C466.653 329.507 469.053 330.36 472.2 330.36C475.4 330.36 477.827 329.507 479.48 327.8C481.133 326.093 481.96 323.507 481.96 320.04V299C481.96 297.827 482.333 296.867 483.08 296.12C483.827 295.32 484.787 294.92 485.96 294.92ZM505.084 337C503.911 337 502.951 336.627 502.204 335.88C501.458 335.08 501.084 334.093 501.084 332.92V299C501.084 297.827 501.458 296.867 502.204 296.12C502.951 295.32 503.911 294.92 505.084 294.92C506.204 294.92 507.138 295.32 507.884 296.12C508.684 296.867 509.084 297.827 509.084 299V307.96L508.284 304.52C508.711 303.027 509.351 301.64 510.204 300.36C511.111 299.08 512.178 297.96 513.404 297C514.631 296.04 515.991 295.293 517.484 294.76C519.031 294.227 520.631 293.96 522.284 293.96C523.671 293.96 524.871 294.333 525.884 295.08C526.898 295.827 527.404 296.76 527.404 297.88C527.404 299.32 527.031 300.387 526.284 301.08C525.538 301.72 524.711 302.04 523.804 302.04C523.004 302.04 522.231 301.88 521.484 301.56C520.738 301.187 519.858 301 518.844 301C517.724 301 516.578 301.293 515.404 301.88C514.231 302.467 513.164 303.347 512.204 304.52C511.244 305.64 510.471 306.973 509.884 308.52C509.351 310.067 509.084 311.8 509.084 313.72V332.92C509.084 334.093 508.684 335.08 507.884 335.88C507.138 336.627 506.204 337 505.084 337Z" fill="#64628E"/>
<path id="Vector_9" d="M311.767 391.174C322.067 391.174 330.418 382.245 330.418 371.23C330.418 360.216 322.067 351.287 311.767 351.287C301.466 351.287 293.116 360.216 293.116 371.23C293.116 382.245 301.466 391.174 311.767 391.174Z" stroke="#64628E" stroke-width="10" stroke-miterlimit="10"/>
</g>
</g>
</svg>
