<svg width="348" height="277" viewBox="0 0 348 277" fill="none" xmlns="http://www.w3.org/2000/svg">
<rect width="348" height="277" fill="#615454"/>
<rect x="224" y="221" width="102" height="32" rx="9" stroke="#F9F3F3" stroke-width="2"/>
<path d="M37.1136 55V37.5455H39.2273V46.2045H39.4318L47.2727 37.5455H50.0341L42.7045 45.4205L50.0341 55H47.4773L41.4091 46.8864L39.2273 49.3409V55H37.1136ZM58.1562 55H52.7699V37.5455H58.3949C60.0881 37.5455 61.5369 37.8949 62.7415 38.5938C63.946 39.2869 64.8693 40.2841 65.5114 41.5852C66.1534 42.8807 66.4744 44.4318 66.4744 46.2386C66.4744 48.0568 66.1506 49.6222 65.5028 50.9347C64.8551 52.2415 63.9119 53.2472 62.6733 53.9517C61.4347 54.6506 59.929 55 58.1562 55ZM54.8835 53.125H58.0199C59.4631 53.125 60.6591 52.8466 61.608 52.2898C62.5568 51.733 63.2642 50.9403 63.7301 49.9119C64.196 48.8835 64.429 47.6591 64.429 46.2386C64.429 44.8295 64.1989 43.6165 63.7386 42.5994C63.2784 41.5767 62.5909 40.7926 61.6761 40.2472C60.7614 39.696 59.6222 39.4205 58.2585 39.4205H54.8835V53.125ZM70.0199 55V37.5455H72.1335V46.2045H72.3381L80.179 37.5455H82.9403L75.6108 45.4205L82.9403 55H80.3835L74.3153 46.8864L72.1335 49.3409V55H70.0199ZM86.392 55H84.1761L90.5852 37.5455H92.767L99.1761 55H96.9602L91.7443 40.3068H91.608L86.392 55ZM87.2102 48.1818H96.142V50.0568H87.2102V48.1818ZM111.44 41.9091C111.338 41.0455 110.923 40.375 110.196 39.8977C109.469 39.4205 108.577 39.1818 107.52 39.1818C106.747 39.1818 106.071 39.3068 105.491 39.5568C104.918 39.8068 104.469 40.1506 104.145 40.5881C103.827 41.0256 103.668 41.5227 103.668 42.0795C103.668 42.5455 103.778 42.946 104 43.2812C104.227 43.6108 104.517 43.8864 104.869 44.108C105.222 44.3239 105.591 44.5028 105.977 44.6449C106.364 44.7812 106.719 44.892 107.043 44.9773L108.815 45.4545C109.27 45.5739 109.776 45.7386 110.332 45.9489C110.895 46.1591 111.432 46.446 111.943 46.8097C112.46 47.1676 112.886 47.6278 113.222 48.1903C113.557 48.7528 113.724 49.4432 113.724 50.2614C113.724 51.2045 113.477 52.0568 112.983 52.8182C112.494 53.5795 111.778 54.1847 110.835 54.6335C109.898 55.0824 108.759 55.3068 107.418 55.3068C106.168 55.3068 105.085 55.1051 104.17 54.7017C103.261 54.2983 102.545 53.7358 102.023 53.0142C101.506 52.2926 101.213 51.4545 101.145 50.5H103.327C103.384 51.1591 103.605 51.7045 103.991 52.1364C104.384 52.5625 104.878 52.8807 105.474 53.0909C106.077 53.2955 106.724 53.3977 107.418 53.3977C108.224 53.3977 108.949 53.267 109.591 53.0057C110.233 52.7386 110.741 52.3693 111.116 51.8977C111.491 51.4205 111.679 50.8636 111.679 50.2273C111.679 49.6477 111.517 49.1761 111.193 48.8125C110.869 48.4489 110.443 48.1534 109.915 47.9261C109.386 47.6989 108.815 47.5 108.202 47.3295L106.054 46.7159C104.69 46.3239 103.611 45.7642 102.815 45.0369C102.02 44.3097 101.622 43.358 101.622 42.1818C101.622 41.2045 101.886 40.3523 102.415 39.625C102.949 38.892 103.665 38.3239 104.562 37.9205C105.466 37.5114 106.474 37.3068 107.588 37.3068C108.713 37.3068 109.713 37.5085 110.588 37.9119C111.463 38.3097 112.156 38.8551 112.668 39.5483C113.185 40.2415 113.457 41.0284 113.486 41.9091H111.44Z" fill="white"/>
<path d="M37.5852 93V79.9091H39.1705V86.4034H39.3239L45.2045 79.9091H47.2756L41.7784 85.8153L47.2756 93H45.358L40.8068 86.9148L39.1705 88.7557V93H37.5852ZM53.3672 93H49.3274V79.9091H53.5462C54.8161 79.9091 55.9027 80.1712 56.8061 80.6953C57.7095 81.2152 58.402 81.9631 58.8835 82.9389C59.3651 83.9105 59.6058 85.0739 59.6058 86.429C59.6058 87.7926 59.3629 88.9666 58.8771 89.951C58.3913 90.9311 57.6839 91.6854 56.755 92.2138C55.826 92.7379 54.6967 93 53.3672 93ZM50.9126 91.5938H53.2649C54.3473 91.5938 55.2443 91.3849 55.956 90.9673C56.6676 90.5497 57.1982 89.9553 57.5476 89.1839C57.897 88.4126 58.0717 87.4943 58.0717 86.429C58.0717 85.3722 57.8991 84.4624 57.554 83.6996C57.2088 82.9325 56.6932 82.3445 56.0071 81.9354C55.321 81.522 54.4666 81.3153 53.4439 81.3153H50.9126V91.5938ZM62.2649 93V79.9091H63.8501V86.4034H64.0036L69.8842 79.9091H71.9553L66.4581 85.8153L71.9553 93H70.0376L65.4865 86.9148L63.8501 88.7557V93H62.2649ZM74.544 93H72.8821L77.6889 79.9091H79.3253L84.1321 93H82.4702L78.5582 81.9801H78.456L74.544 93ZM75.1577 87.8864H81.8565V89.2926H75.1577V87.8864ZM93.3303 83.1818C93.2536 82.5341 92.9425 82.0312 92.397 81.6733C91.8516 81.3153 91.1825 81.1364 90.3899 81.1364C89.8104 81.1364 89.3033 81.2301 88.8686 81.4176C88.4382 81.6051 88.1016 81.8629 87.8587 82.1911C87.62 82.5192 87.5007 82.892 87.5007 83.3097C87.5007 83.6591 87.5838 83.9595 87.75 84.2109C87.9205 84.4581 88.1378 84.6648 88.402 84.831C88.6662 84.9929 88.9432 85.1271 89.233 85.2337C89.5227 85.3359 89.7891 85.419 90.032 85.483L91.3615 85.8409C91.7024 85.9304 92.0817 86.054 92.4993 86.2116C92.9212 86.3693 93.3239 86.5845 93.7074 86.8572C94.0952 87.1257 94.4148 87.4709 94.6662 87.8928C94.9176 88.3146 95.0433 88.8324 95.0433 89.446C95.0433 90.1534 94.858 90.7926 94.4872 91.3636C94.1207 91.9347 93.5838 92.3885 92.8764 92.7251C92.1733 93.0618 91.3189 93.2301 90.3132 93.2301C89.3757 93.2301 88.5639 93.0788 87.8778 92.7763C87.196 92.4737 86.6591 92.0518 86.267 91.5107C85.8793 90.9695 85.6598 90.3409 85.6087 89.625H87.245C87.2876 90.1193 87.4538 90.5284 87.7436 90.8523C88.0376 91.1719 88.4084 91.4105 88.8558 91.5682C89.3075 91.7216 89.7933 91.7983 90.3132 91.7983C90.9183 91.7983 91.4616 91.7003 91.9432 91.5043C92.4247 91.304 92.8061 91.027 93.0874 90.6733C93.3686 90.3153 93.5092 89.8977 93.5092 89.4205C93.5092 88.9858 93.3878 88.6321 93.1449 88.3594C92.902 88.0866 92.5824 87.8651 92.1861 87.6946C91.7898 87.5241 91.3615 87.375 90.9013 87.2472L89.2905 86.7869C88.2678 86.4929 87.4581 86.0732 86.8615 85.5277C86.2649 84.9822 85.9666 84.2685 85.9666 83.3864C85.9666 82.6534 86.1648 82.0142 86.5611 81.4688C86.9616 80.919 87.4986 80.4929 88.1719 80.1903C88.8494 79.8835 89.6058 79.7301 90.4411 79.7301C91.2848 79.7301 92.0348 79.8814 92.6911 80.1839C93.3473 80.4822 93.8672 80.8913 94.2507 81.4112C94.6385 81.9311 94.843 82.5213 94.8643 83.1818H93.3303ZM102.508 93V83.1818H104.016V93H102.508ZM103.275 81.5455C102.981 81.5455 102.727 81.4453 102.514 81.245C102.305 81.0447 102.201 80.804 102.201 80.5227C102.201 80.2415 102.305 80.0007 102.514 79.8004C102.727 79.6001 102.981 79.5 103.275 79.5C103.569 79.5 103.82 79.6001 104.029 79.8004C104.242 80.0007 104.349 80.2415 104.349 80.5227C104.349 80.804 104.242 81.0447 104.029 81.245C103.82 81.4453 103.569 81.5455 103.275 81.5455ZM113.734 85.3807L112.379 85.7642C112.293 85.5384 112.168 85.3189 112.001 85.1058C111.839 84.8885 111.618 84.7095 111.337 84.5689C111.055 84.4283 110.695 84.358 110.256 84.358C109.656 84.358 109.155 84.4964 108.754 84.7734C108.358 85.0462 108.16 85.3935 108.16 85.8153C108.16 86.1903 108.296 86.4865 108.569 86.7038C108.842 86.9212 109.268 87.1023 109.847 87.2472L111.305 87.6051C112.183 87.8182 112.837 88.1442 113.267 88.5831C113.697 89.0178 113.913 89.5781 113.913 90.2642C113.913 90.8267 113.751 91.3295 113.427 91.7727C113.107 92.2159 112.66 92.5653 112.085 92.821C111.509 93.0767 110.84 93.2045 110.077 93.2045C109.076 93.2045 108.247 92.9872 107.591 92.5526C106.935 92.1179 106.519 91.483 106.344 90.6477L107.776 90.2898C107.913 90.8182 108.17 91.2145 108.55 91.4787C108.933 91.7429 109.434 91.875 110.052 91.875C110.755 91.875 111.313 91.7259 111.727 91.4276C112.144 91.125 112.353 90.7628 112.353 90.3409C112.353 90 112.234 89.7145 111.995 89.4844C111.756 89.25 111.39 89.0753 110.896 88.9602L109.259 88.5767C108.36 88.3636 107.7 88.0334 107.278 87.5859C106.86 87.1342 106.651 86.5696 106.651 85.892C106.651 85.3381 106.807 84.848 107.118 84.4219C107.433 83.9957 107.862 83.6612 108.403 83.4183C108.948 83.1754 109.566 83.054 110.256 83.054C111.228 83.054 111.991 83.267 112.545 83.6932C113.103 84.1193 113.499 84.6818 113.734 85.3807ZM124.135 93.2301C123.513 93.2301 122.948 93.1129 122.441 92.8786C121.934 92.6399 121.531 92.2969 121.233 91.8494C120.935 91.3977 120.786 90.8523 120.786 90.2131C120.786 89.6506 120.896 89.1946 121.118 88.8452C121.34 88.4915 121.636 88.2145 122.007 88.0142C122.377 87.8139 122.786 87.6648 123.234 87.5668C123.686 87.4645 124.139 87.3835 124.595 87.3239C125.192 87.2472 125.676 87.1896 126.046 87.1513C126.421 87.1087 126.694 87.0384 126.865 86.9403C127.039 86.8423 127.127 86.6719 127.127 86.429V86.3778C127.127 85.7472 126.954 85.2571 126.609 84.9077C126.268 84.5582 125.75 84.3835 125.056 84.3835C124.335 84.3835 123.771 84.5412 123.362 84.8565C122.953 85.1719 122.665 85.5085 122.499 85.8665L121.067 85.3551C121.323 84.7585 121.664 84.294 122.09 83.9616C122.52 83.625 122.989 83.3906 123.496 83.2585C124.007 83.1222 124.51 83.054 125.004 83.054C125.32 83.054 125.682 83.0923 126.091 83.169C126.504 83.2415 126.903 83.3928 127.286 83.6229C127.674 83.853 127.996 84.2003 128.252 84.6648C128.507 85.1293 128.635 85.7514 128.635 86.5312V93H127.127V91.6705H127.05C126.948 91.8835 126.777 92.1115 126.539 92.3544C126.3 92.5973 125.982 92.804 125.586 92.9744C125.19 93.1449 124.706 93.2301 124.135 93.2301ZM124.365 91.875C124.962 91.875 125.465 91.7578 125.874 91.5234C126.287 91.2891 126.598 90.9865 126.807 90.6158C127.02 90.245 127.127 89.8551 127.127 89.446V88.0653C127.063 88.142 126.922 88.2124 126.705 88.2763C126.492 88.3359 126.244 88.3892 125.963 88.4361C125.686 88.4787 125.416 88.517 125.151 88.5511C124.892 88.581 124.681 88.6065 124.519 88.6278C124.127 88.679 123.76 88.7621 123.419 88.8771C123.083 88.9879 122.81 89.1562 122.601 89.3821C122.396 89.6037 122.294 89.9062 122.294 90.2898C122.294 90.8139 122.488 91.2102 122.876 91.4787C123.268 91.7429 123.764 91.875 124.365 91.875ZM140.44 93.2045C139.519 93.2045 138.727 92.9872 138.062 92.5526C137.397 92.1179 136.886 91.5192 136.528 90.7564C136.17 89.9936 135.991 89.1222 135.991 88.142C135.991 87.1449 136.174 86.2649 136.54 85.5021C136.911 84.7351 137.427 84.1364 138.087 83.706C138.752 83.2713 139.528 83.054 140.414 83.054C141.104 83.054 141.727 83.1818 142.281 83.4375C142.835 83.6932 143.288 84.0511 143.642 84.5114C143.996 84.9716 144.215 85.5085 144.3 86.1222H142.792C142.677 85.6747 142.421 85.2784 142.025 84.9332C141.633 84.5838 141.104 84.4091 140.44 84.4091C139.852 84.4091 139.336 84.5625 138.893 84.8693C138.454 85.1719 138.111 85.6001 137.864 86.1541C137.621 86.7038 137.499 87.3494 137.499 88.0909C137.499 88.8494 137.619 89.5099 137.857 90.0724C138.1 90.6349 138.441 91.0717 138.88 91.3828C139.323 91.6939 139.843 91.8494 140.44 91.8494C140.832 91.8494 141.188 91.7812 141.507 91.6449C141.827 91.5085 142.097 91.3125 142.319 91.0568C142.54 90.8011 142.698 90.4943 142.792 90.1364H144.3C144.215 90.7159 144.004 91.2379 143.668 91.7024C143.335 92.1626 142.894 92.5291 142.344 92.8018C141.799 93.0703 141.164 93.2045 140.44 93.2045ZM150.494 93.2045C149.608 93.2045 148.83 92.9936 148.161 92.5717C147.496 92.1499 146.977 91.5597 146.602 90.8011C146.231 90.0426 146.045 89.1562 146.045 88.142C146.045 87.1193 146.231 86.2266 146.602 85.4638C146.977 84.701 147.496 84.1087 148.161 83.6868C148.83 83.2649 149.608 83.054 150.494 83.054C151.381 83.054 152.156 83.2649 152.821 83.6868C153.49 84.1087 154.01 84.701 154.381 85.4638C154.756 86.2266 154.943 87.1193 154.943 88.142C154.943 89.1562 154.756 90.0426 154.381 90.8011C154.01 91.5597 153.49 92.1499 152.821 92.5717C152.156 92.9936 151.381 93.2045 150.494 93.2045ZM150.494 91.8494C151.168 91.8494 151.722 91.6768 152.156 91.3317C152.591 90.9865 152.913 90.5327 153.121 89.9702C153.33 89.4077 153.435 88.7983 153.435 88.142C153.435 87.4858 153.33 86.8743 153.121 86.3075C152.913 85.7408 152.591 85.2827 152.156 84.9332C151.722 84.5838 151.168 84.4091 150.494 84.4091C149.821 84.4091 149.267 84.5838 148.832 84.9332C148.398 85.2827 148.076 85.7408 147.867 86.3075C147.658 86.8743 147.554 87.4858 147.554 88.142C147.554 88.7983 147.658 89.4077 147.867 89.9702C148.076 90.5327 148.398 90.9865 148.832 91.3317C149.267 91.6768 149.821 91.8494 150.494 91.8494ZM157.246 93V83.1818H158.703V84.7159H158.831C159.036 84.1918 159.366 83.7848 159.822 83.495C160.278 83.201 160.825 83.054 161.465 83.054C162.112 83.054 162.651 83.201 163.082 83.495C163.517 83.7848 163.855 84.1918 164.098 84.7159H164.2C164.452 84.2088 164.829 83.8061 165.332 83.5078C165.835 83.2053 166.438 83.054 167.141 83.054C168.019 83.054 168.737 83.3288 169.295 83.8786C169.853 84.424 170.132 85.2741 170.132 86.429V93H168.624V86.429C168.624 85.7045 168.426 85.1868 168.029 84.8757C167.633 84.5646 167.166 84.4091 166.629 84.4091C165.939 84.4091 165.404 84.6179 165.025 85.0355C164.646 85.4489 164.456 85.973 164.456 86.608V93H162.922V86.2756C162.922 85.7173 162.741 85.2678 162.379 84.9268C162.017 84.5817 161.55 84.4091 160.979 84.4091C160.587 84.4091 160.22 84.5135 159.879 84.7223C159.543 84.9311 159.27 85.2209 159.061 85.5916C158.857 85.9581 158.754 86.3821 158.754 86.8636V93H157.246ZM172.89 93V83.1818H174.348V84.7159H174.476C174.68 84.1918 175.01 83.7848 175.466 83.495C175.922 83.201 176.47 83.054 177.109 83.054C177.757 83.054 178.296 83.201 178.726 83.495C179.161 83.7848 179.5 84.1918 179.743 84.7159H179.845C180.096 84.2088 180.474 83.8061 180.976 83.5078C181.479 83.2053 182.082 83.054 182.785 83.054C183.663 83.054 184.381 83.3288 184.939 83.8786C185.498 84.424 185.777 85.2741 185.777 86.429V93H184.268V86.429C184.268 85.7045 184.07 85.1868 183.674 84.8757C183.278 84.5646 182.811 84.4091 182.274 84.4091C181.584 84.4091 181.049 84.6179 180.67 85.0355C180.29 85.4489 180.101 85.973 180.101 86.608V93H178.567V86.2756C178.567 85.7173 178.385 85.2678 178.023 84.9268C177.661 84.5817 177.194 84.4091 176.623 84.4091C176.231 84.4091 175.865 84.5135 175.524 84.7223C175.187 84.9311 174.915 85.2209 174.706 85.5916C174.501 85.9581 174.399 86.3821 174.399 86.8636V93H172.89ZM194.722 88.9858V83.1818H196.231V93H194.722V91.3381H194.62C194.39 91.8366 194.032 92.2607 193.546 92.6101C193.061 92.9553 192.447 93.1278 191.705 93.1278C191.092 93.1278 190.546 92.9936 190.069 92.7251C189.592 92.4524 189.217 92.0433 188.944 91.4979C188.671 90.9482 188.535 90.2557 188.535 89.4205V83.1818H190.044V89.3182C190.044 90.0341 190.244 90.6051 190.644 91.0312C191.049 91.4574 191.565 91.6705 192.191 91.6705C192.566 91.6705 192.948 91.5746 193.335 91.3828C193.727 91.1911 194.056 90.897 194.32 90.5007C194.588 90.1044 194.722 89.5994 194.722 88.9858ZM200.502 87.0938V93H198.994V83.1818H200.451V84.7159H200.579C200.809 84.2173 201.159 83.8168 201.627 83.5142C202.096 83.2074 202.701 83.054 203.443 83.054C204.108 83.054 204.689 83.1903 205.188 83.4631C205.686 83.7315 206.074 84.1406 206.351 84.6903C206.628 85.2358 206.767 85.9261 206.767 86.7614V93H205.258V86.8636C205.258 86.0923 205.058 85.4915 204.657 85.0611C204.257 84.6264 203.707 84.4091 203.008 84.4091C202.527 84.4091 202.096 84.5135 201.717 84.7223C201.342 84.9311 201.046 85.2358 200.828 85.6364C200.611 86.0369 200.502 86.5227 200.502 87.0938ZM209.523 93V83.1818H211.032V93H209.523ZM210.29 81.5455C209.996 81.5455 209.743 81.4453 209.53 81.245C209.321 81.0447 209.216 80.804 209.216 80.5227C209.216 80.2415 209.321 80.0007 209.53 79.8004C209.743 79.6001 209.996 79.5 210.29 79.5C210.584 79.5 210.836 79.6001 211.045 79.8004C211.258 80.0007 211.364 80.2415 211.364 80.5227C211.364 80.804 211.258 81.0447 211.045 81.245C210.836 81.4453 210.584 81.5455 210.29 81.5455ZM218.065 83.1818V84.4602H212.977V83.1818H218.065ZM214.46 80.8295H215.968V90.1875C215.968 90.6136 216.03 90.9332 216.153 91.1463C216.281 91.3551 216.443 91.4957 216.639 91.5682C216.839 91.6364 217.05 91.6705 217.272 91.6705C217.438 91.6705 217.575 91.6619 217.681 91.6449C217.788 91.6236 217.873 91.6065 217.937 91.5938L218.244 92.9489C218.141 92.9872 217.999 93.0256 217.815 93.0639C217.632 93.1065 217.4 93.1278 217.119 93.1278C216.692 93.1278 216.275 93.0362 215.866 92.853C215.461 92.6697 215.124 92.3906 214.856 92.0156C214.592 91.6406 214.46 91.1676 214.46 90.5966V80.8295ZM221.305 96.6818C221.05 96.6818 220.822 96.6605 220.621 96.6179C220.421 96.5795 220.283 96.5412 220.206 96.5028L220.589 95.1733C220.956 95.267 221.28 95.3011 221.561 95.2756C221.842 95.25 222.092 95.1243 222.309 94.8984C222.531 94.6768 222.733 94.3168 222.916 93.8182L223.197 93.0511L219.567 83.1818H221.203L223.913 91.0057H224.016L226.726 83.1818H228.362L224.195 94.4318C224.007 94.9389 223.775 95.3587 223.498 95.6911C223.221 96.0277 222.899 96.277 222.533 96.4389C222.17 96.6009 221.761 96.6818 221.305 96.6818ZM239.686 83.1818V84.4602H234.598V83.1818H239.686ZM236.081 80.8295H237.589V90.1875C237.589 90.6136 237.651 90.9332 237.775 91.1463C237.902 91.3551 238.064 91.4957 238.26 91.5682C238.461 91.6364 238.672 91.6705 238.893 91.6705C239.059 91.6705 239.196 91.6619 239.302 91.6449C239.409 91.6236 239.494 91.6065 239.558 91.5938L239.865 92.9489C239.762 92.9872 239.62 93.0256 239.436 93.0639C239.253 93.1065 239.021 93.1278 238.74 93.1278C238.314 93.1278 237.896 93.0362 237.487 92.853C237.082 92.6697 236.745 92.3906 236.477 92.0156C236.213 91.6406 236.081 91.1676 236.081 90.5966V80.8295ZM243.674 87.0938V93H242.166V79.9091H243.674V84.7159H243.802C244.032 84.2088 244.377 83.8061 244.838 83.5078C245.302 83.2053 245.92 83.054 246.691 83.054C247.36 83.054 247.946 83.1882 248.449 83.4567C248.952 83.7209 249.342 84.1278 249.619 84.6776C249.9 85.223 250.041 85.9176 250.041 86.7614V93H248.532V86.8636C248.532 86.0838 248.33 85.4808 247.925 85.0547C247.525 84.6243 246.968 84.4091 246.257 84.4091C245.762 84.4091 245.319 84.5135 244.927 84.7223C244.539 84.9311 244.233 85.2358 244.007 85.6364C243.785 86.0369 243.674 86.5227 243.674 87.0938ZM255.69 93.2301C255.068 93.2301 254.503 93.1129 253.996 92.8786C253.489 92.6399 253.086 92.2969 252.788 91.8494C252.49 91.3977 252.34 90.8523 252.34 90.2131C252.34 89.6506 252.451 89.1946 252.673 88.8452C252.894 88.4915 253.191 88.2145 253.561 88.0142C253.932 87.8139 254.341 87.6648 254.789 87.5668C255.24 87.4645 255.694 87.3835 256.15 87.3239C256.747 87.2472 257.23 87.1896 257.601 87.1513C257.976 87.1087 258.249 87.0384 258.419 86.9403C258.594 86.8423 258.681 86.6719 258.681 86.429V86.3778C258.681 85.7472 258.509 85.2571 258.164 84.9077C257.823 84.5582 257.305 84.3835 256.61 84.3835C255.89 84.3835 255.325 84.5412 254.916 84.8565C254.507 85.1719 254.22 85.5085 254.053 85.8665L252.622 85.3551C252.877 84.7585 253.218 84.294 253.644 83.9616C254.075 83.625 254.544 83.3906 255.051 83.2585C255.562 83.1222 256.065 83.054 256.559 83.054C256.874 83.054 257.237 83.0923 257.646 83.169C258.059 83.2415 258.458 83.3928 258.841 83.6229C259.229 83.853 259.551 84.2003 259.806 84.6648C260.062 85.1293 260.19 85.7514 260.19 86.5312V93H258.681V91.6705H258.605C258.502 91.8835 258.332 92.1115 258.093 92.3544C257.855 92.5973 257.537 92.804 257.141 92.9744C256.744 93.1449 256.261 93.2301 255.69 93.2301ZM255.92 91.875C256.517 91.875 257.019 91.7578 257.428 91.5234C257.842 91.2891 258.153 90.9865 258.362 90.6158C258.575 90.245 258.681 89.8551 258.681 89.446V88.0653C258.617 88.142 258.477 88.2124 258.259 88.2763C258.046 88.3359 257.799 88.3892 257.518 88.4361C257.241 88.4787 256.97 88.517 256.706 88.5511C256.446 88.581 256.235 88.6065 256.073 88.6278C255.681 88.679 255.315 88.7621 254.974 88.8771C254.637 88.9879 254.365 89.1562 254.156 89.3821C253.951 89.6037 253.849 89.9062 253.849 90.2898C253.849 90.8139 254.043 91.2102 254.431 91.4787C254.823 91.7429 255.319 91.875 255.92 91.875ZM267.213 83.1818V84.4602H262.125V83.1818H267.213ZM263.608 80.8295H265.116V90.1875C265.116 90.6136 265.178 90.9332 265.302 91.1463C265.43 91.3551 265.592 91.4957 265.788 91.5682C265.988 91.6364 266.199 91.6705 266.42 91.6705C266.587 91.6705 266.723 91.6619 266.83 91.6449C266.936 91.6236 267.021 91.6065 267.085 91.5938L267.392 92.9489C267.29 92.9872 267.147 93.0256 266.964 93.0639C266.781 93.1065 266.548 93.1278 266.267 93.1278C265.841 93.1278 265.423 93.0362 265.014 92.853C264.609 92.6697 264.273 92.3906 264.004 92.0156C263.74 91.6406 263.608 91.1676 263.608 90.5966V80.8295ZM41.3693 115.205C40.4489 115.205 39.6563 114.987 38.9915 114.553C38.3267 114.118 37.8153 113.519 37.4574 112.756C37.0994 111.994 36.9205 111.122 36.9205 110.142C36.9205 109.145 37.1037 108.265 37.4702 107.502C37.8409 106.735 38.3565 106.136 39.017 105.706C39.6818 105.271 40.4574 105.054 41.3438 105.054C42.0341 105.054 42.6562 105.182 43.2102 105.438C43.7642 105.693 44.218 106.051 44.5717 106.511C44.9254 106.972 45.1449 107.509 45.2301 108.122H43.7216C43.6065 107.675 43.3509 107.278 42.9545 106.933C42.5625 106.584 42.0341 106.409 41.3693 106.409C40.7813 106.409 40.2656 106.562 39.8224 106.869C39.3835 107.172 39.0405 107.6 38.7933 108.154C38.5504 108.704 38.429 109.349 38.429 110.091C38.429 110.849 38.5483 111.51 38.7869 112.072C39.0298 112.635 39.3707 113.072 39.8097 113.383C40.2528 113.694 40.7727 113.849 41.3693 113.849C41.7614 113.849 42.1172 113.781 42.4368 113.645C42.7564 113.509 43.027 113.312 43.2486 113.057C43.4702 112.801 43.6278 112.494 43.7216 112.136H45.2301C45.1449 112.716 44.9339 113.238 44.5973 113.702C44.2649 114.163 43.8239 114.529 43.2741 114.802C42.7287 115.07 42.0938 115.205 41.3693 115.205ZM51.424 115.205C50.5376 115.205 49.7599 114.994 49.0909 114.572C48.4261 114.15 47.9062 113.56 47.5312 112.801C47.1605 112.043 46.9751 111.156 46.9751 110.142C46.9751 109.119 47.1605 108.227 47.5312 107.464C47.9062 106.701 48.4261 106.109 49.0909 105.687C49.7599 105.265 50.5376 105.054 51.424 105.054C52.3104 105.054 53.0859 105.265 53.7507 105.687C54.4197 106.109 54.9396 106.701 55.3104 107.464C55.6854 108.227 55.8729 109.119 55.8729 110.142C55.8729 111.156 55.6854 112.043 55.3104 112.801C54.9396 113.56 54.4197 114.15 53.7507 114.572C53.0859 114.994 52.3104 115.205 51.424 115.205ZM51.424 113.849C52.0973 113.849 52.6513 113.677 53.0859 113.332C53.5206 112.987 53.8423 112.533 54.0511 111.97C54.2599 111.408 54.3643 110.798 54.3643 110.142C54.3643 109.486 54.2599 108.874 54.0511 108.308C53.8423 107.741 53.5206 107.283 53.0859 106.933C52.6513 106.584 52.0973 106.409 51.424 106.409C50.7507 106.409 50.1967 106.584 49.7621 106.933C49.3274 107.283 49.0057 107.741 48.7969 108.308C48.5881 108.874 48.4837 109.486 48.4837 110.142C48.4837 110.798 48.5881 111.408 48.7969 111.97C49.0057 112.533 49.3274 112.987 49.7621 113.332C50.1967 113.677 50.7507 113.849 51.424 113.849ZM59.6841 109.094V115H58.1756V105.182H59.633V106.716H59.7608C59.9909 106.217 60.3404 105.817 60.8091 105.514C61.2779 105.207 61.883 105.054 62.6245 105.054C63.2892 105.054 63.8709 105.19 64.3695 105.463C64.8681 105.732 65.2559 106.141 65.5328 106.69C65.8098 107.236 65.9483 107.926 65.9483 108.761V115H64.4398V108.864C64.4398 108.092 64.2395 107.491 63.839 107.061C63.4384 106.626 62.8887 106.409 62.1898 106.409C61.7083 106.409 61.2779 106.513 60.8986 106.722C60.5236 106.931 60.2275 107.236 60.0101 107.636C59.7928 108.037 59.6841 108.523 59.6841 109.094ZM72.6935 115.205C71.7731 115.205 70.9805 114.987 70.3157 114.553C69.6509 114.118 69.1396 113.519 68.7816 112.756C68.4237 111.994 68.2447 111.122 68.2447 110.142C68.2447 109.145 68.4279 108.265 68.7944 107.502C69.1651 106.735 69.6808 106.136 70.3413 105.706C71.006 105.271 71.7816 105.054 72.668 105.054C73.3583 105.054 73.9805 105.182 74.5344 105.438C75.0884 105.693 75.5423 106.051 75.896 106.511C76.2496 106.972 76.4691 107.509 76.5543 108.122H75.0458C74.9308 107.675 74.6751 107.278 74.2788 106.933C73.8867 106.584 73.3583 106.409 72.6935 106.409C72.1055 106.409 71.5898 106.562 71.1467 106.869C70.7077 107.172 70.3647 107.6 70.1175 108.154C69.8746 108.704 69.7532 109.349 69.7532 110.091C69.7532 110.849 69.8725 111.51 70.1112 112.072C70.354 112.635 70.695 113.072 71.1339 113.383C71.5771 113.694 72.0969 113.849 72.6935 113.849C73.0856 113.849 73.4414 113.781 73.761 113.645C74.0806 113.509 74.3512 113.312 74.5728 113.057C74.7944 112.801 74.9521 112.494 75.0458 112.136H76.5543C76.4691 112.716 76.2582 113.238 75.9215 113.702C75.5891 114.163 75.1481 114.529 74.5984 114.802C74.0529 115.07 73.418 115.205 72.6935 115.205ZM82.8761 115.205C81.93 115.205 81.114 114.996 80.4279 114.578C79.7461 114.156 79.2198 113.568 78.8491 112.814C78.4826 112.055 78.2994 111.173 78.2994 110.168C78.2994 109.162 78.4826 108.276 78.8491 107.509C79.2198 106.737 79.7354 106.136 80.396 105.706C81.0607 105.271 81.8363 105.054 82.7227 105.054C83.234 105.054 83.739 105.139 84.2376 105.31C84.7362 105.48 85.19 105.757 85.5991 106.141C86.0082 106.52 86.3342 107.023 86.5771 107.649C86.82 108.276 86.9414 109.047 86.9414 109.963V110.602H79.3732V109.298H85.4073C85.4073 108.744 85.2965 108.25 85.0749 107.815C84.8576 107.381 84.5465 107.038 84.1417 106.786C83.7411 106.535 83.2681 106.409 82.7227 106.409C82.1218 106.409 81.6019 106.558 81.163 106.857C80.7283 107.151 80.3938 107.534 80.1594 108.007C79.9251 108.48 79.8079 108.987 79.8079 109.528V110.398C79.8079 111.139 79.9357 111.768 80.1914 112.283C80.4513 112.795 80.8114 113.185 81.2717 113.453C81.7319 113.717 82.2667 113.849 82.8761 113.849C83.2724 113.849 83.6303 113.794 83.9499 113.683C84.2738 113.568 84.5529 113.398 84.7873 113.172C85.0217 112.942 85.2028 112.656 85.3306 112.315L86.788 112.724C86.6346 113.219 86.3768 113.653 86.0146 114.028C85.6523 114.399 85.2049 114.689 84.6722 114.898C84.1396 115.102 83.5408 115.205 82.8761 115.205ZM89.2362 115V105.182H90.6935V106.665H90.7958C90.9748 106.179 91.2987 105.785 91.7674 105.482C92.2362 105.18 92.7646 105.028 93.3526 105.028C93.4634 105.028 93.6019 105.031 93.7681 105.035C93.9343 105.039 94.06 105.045 94.1452 105.054V106.588C94.0941 106.575 93.9769 106.556 93.7937 106.531C93.6147 106.501 93.4251 106.486 93.2248 106.486C92.7475 106.486 92.3214 106.586 91.9464 106.786C91.5756 106.982 91.2816 107.255 91.0643 107.604C90.8512 107.95 90.7447 108.344 90.7447 108.787V115H89.2362ZM97.4419 109.094V115H95.9334V105.182H97.3908V106.716H97.5186C97.7488 106.217 98.0982 105.817 98.5669 105.514C99.0357 105.207 99.6408 105.054 100.382 105.054C101.047 105.054 101.629 105.19 102.127 105.463C102.626 105.732 103.014 106.141 103.291 106.69C103.568 107.236 103.706 107.926 103.706 108.761V115H102.198V108.864C102.198 108.092 101.997 107.491 101.597 107.061C101.196 106.626 100.646 106.409 99.9476 106.409C99.4661 106.409 99.0357 106.513 98.6564 106.722C98.2814 106.931 97.9853 107.236 97.7679 107.636C97.5506 108.037 97.4419 108.523 97.4419 109.094ZM115.795 105.182V106.46H110.707V105.182H115.795ZM112.19 102.83H113.699V112.188C113.699 112.614 113.76 112.933 113.884 113.146C114.012 113.355 114.174 113.496 114.37 113.568C114.57 113.636 114.781 113.67 115.002 113.67C115.169 113.67 115.305 113.662 115.412 113.645C115.518 113.624 115.603 113.607 115.667 113.594L115.974 114.949C115.872 114.987 115.729 115.026 115.546 115.064C115.363 115.107 115.13 115.128 114.849 115.128C114.423 115.128 114.005 115.036 113.596 114.853C113.191 114.67 112.855 114.391 112.586 114.016C112.322 113.641 112.19 113.168 112.19 112.597V102.83ZM121.947 115.205C121.061 115.205 120.283 114.994 119.614 114.572C118.95 114.15 118.43 113.56 118.055 112.801C117.684 112.043 117.499 111.156 117.499 110.142C117.499 109.119 117.684 108.227 118.055 107.464C118.43 106.701 118.95 106.109 119.614 105.687C120.283 105.265 121.061 105.054 121.947 105.054C122.834 105.054 123.609 105.265 124.274 105.687C124.943 106.109 125.463 106.701 125.834 107.464C126.209 108.227 126.396 109.119 126.396 110.142C126.396 111.156 126.209 112.043 125.834 112.801C125.463 113.56 124.943 114.15 124.274 114.572C123.609 114.994 122.834 115.205 121.947 115.205ZM121.947 113.849C122.621 113.849 123.175 113.677 123.609 113.332C124.044 112.987 124.366 112.533 124.575 111.97C124.783 111.408 124.888 110.798 124.888 110.142C124.888 109.486 124.783 108.874 124.575 108.308C124.366 107.741 124.044 107.283 123.609 106.933C123.175 106.584 122.621 106.409 121.947 106.409C121.274 106.409 120.72 106.584 120.286 106.933C119.851 107.283 119.529 107.741 119.32 108.308C119.112 108.874 119.007 109.486 119.007 110.142C119.007 110.798 119.112 111.408 119.32 111.97C119.529 112.533 119.851 112.987 120.286 113.332C120.72 113.677 121.274 113.849 121.947 113.849ZM138.031 105.182V106.46H132.943V105.182H138.031ZM134.426 102.83H135.935V112.188C135.935 112.614 135.997 112.933 136.12 113.146C136.248 113.355 136.41 113.496 136.606 113.568C136.806 113.636 137.017 113.67 137.239 113.67C137.405 113.67 137.541 113.662 137.648 113.645C137.754 113.624 137.84 113.607 137.904 113.594L138.21 114.949C138.108 114.987 137.965 115.026 137.782 115.064C137.599 115.107 137.367 115.128 137.085 115.128C136.659 115.128 136.242 115.036 135.833 114.853C135.428 114.67 135.091 114.391 134.823 114.016C134.558 113.641 134.426 113.168 134.426 112.597V102.83ZM142.02 109.094V115H140.512V101.909H142.02V106.716H142.148C142.378 106.209 142.723 105.806 143.183 105.508C143.648 105.205 144.266 105.054 145.037 105.054C145.706 105.054 146.292 105.188 146.795 105.457C147.298 105.721 147.688 106.128 147.965 106.678C148.246 107.223 148.387 107.918 148.387 108.761V115H146.878V108.864C146.878 108.084 146.676 107.481 146.271 107.055C145.87 106.624 145.314 106.409 144.602 106.409C144.108 106.409 143.665 106.513 143.273 106.722C142.885 106.931 142.578 107.236 142.352 107.636C142.131 108.037 142.02 108.523 142.02 109.094ZM155.263 115.205C154.317 115.205 153.501 114.996 152.815 114.578C152.133 114.156 151.607 113.568 151.236 112.814C150.869 112.055 150.686 111.173 150.686 110.168C150.686 109.162 150.869 108.276 151.236 107.509C151.607 106.737 152.122 106.136 152.783 105.706C153.447 105.271 154.223 105.054 155.109 105.054C155.621 105.054 156.126 105.139 156.624 105.31C157.123 105.48 157.577 105.757 157.986 106.141C158.395 106.52 158.721 107.023 158.964 107.649C159.207 108.276 159.328 109.047 159.328 109.963V110.602H151.76V109.298H157.794C157.794 108.744 157.683 108.25 157.462 107.815C157.244 107.381 156.933 107.038 156.528 106.786C156.128 106.535 155.655 106.409 155.109 106.409C154.509 106.409 153.989 106.558 153.55 106.857C153.115 107.151 152.781 107.534 152.546 108.007C152.312 108.48 152.195 108.987 152.195 109.528V110.398C152.195 111.139 152.322 111.768 152.578 112.283C152.838 112.795 153.198 113.185 153.658 113.453C154.119 113.717 154.653 113.849 155.263 113.849C155.659 113.849 156.017 113.794 156.337 113.683C156.661 113.568 156.94 113.398 157.174 113.172C157.408 112.942 157.589 112.656 157.717 112.315L159.175 112.724C159.021 113.219 158.763 113.653 158.401 114.028C158.039 114.399 157.592 114.689 157.059 114.898C156.526 115.102 155.928 115.205 155.263 115.205ZM167.785 115.102C167.469 115.102 167.199 114.989 166.973 114.763C166.747 114.538 166.634 114.267 166.634 113.952C166.634 113.636 166.747 113.366 166.973 113.14C167.199 112.914 167.469 112.801 167.785 112.801C168.1 112.801 168.371 112.914 168.597 113.14C168.822 113.366 168.935 113.636 168.935 113.952C168.935 114.161 168.882 114.352 168.776 114.527C168.673 114.702 168.535 114.842 168.36 114.949C168.19 115.051 167.998 115.102 167.785 115.102ZM172.742 115.102C172.426 115.102 172.156 114.989 171.93 114.763C171.704 114.538 171.591 114.267 171.591 113.952C171.591 113.636 171.704 113.366 171.93 113.14C172.156 112.914 172.426 112.801 172.742 112.801C173.057 112.801 173.328 112.914 173.554 113.14C173.779 113.366 173.892 113.636 173.892 113.952C173.892 114.161 173.839 114.352 173.733 114.527C173.63 114.702 173.492 114.842 173.317 114.949C173.147 115.051 172.955 115.102 172.742 115.102ZM177.699 115.102C177.384 115.102 177.113 114.989 176.887 114.763C176.661 114.538 176.548 114.267 176.548 113.952C176.548 113.636 176.661 113.366 176.887 113.14C177.113 112.914 177.384 112.801 177.699 112.801C178.014 112.801 178.285 112.914 178.511 113.14C178.737 113.366 178.849 113.636 178.849 113.952C178.849 114.161 178.796 114.352 178.69 114.527C178.587 114.702 178.449 114.842 178.274 114.949C178.104 115.051 177.912 115.102 177.699 115.102ZM182.656 115.102C182.341 115.102 182.07 114.989 181.844 114.763C181.618 114.538 181.505 114.267 181.505 113.952C181.505 113.636 181.618 113.366 181.844 113.14C182.07 112.914 182.341 112.801 182.656 112.801C182.971 112.801 183.242 112.914 183.468 113.14C183.694 113.366 183.806 113.636 183.806 113.952C183.806 114.161 183.753 114.352 183.647 114.527C183.544 114.702 183.406 114.842 183.231 114.949C183.061 115.051 182.869 115.102 182.656 115.102ZM187.613 115.102C187.298 115.102 187.027 114.989 186.801 114.763C186.575 114.538 186.462 114.267 186.462 113.952C186.462 113.636 186.575 113.366 186.801 113.14C187.027 112.914 187.298 112.801 187.613 112.801C187.928 112.801 188.199 112.914 188.425 113.14C188.651 113.366 188.763 113.636 188.763 113.952C188.763 114.161 188.71 114.352 188.604 114.527C188.501 114.702 188.363 114.842 188.188 114.949C188.018 115.051 187.826 115.102 187.613 115.102Z" fill="white"/>
<path d="M239.148 230.364H241.727L245.182 238.795H245.318L248.773 230.364H251.352V242H249.33V234.006H249.222L246.006 241.966H244.494L241.278 233.989H241.17V242H239.148V230.364ZM257.364 242.17C256.511 242.17 255.773 241.983 255.148 241.608C254.523 241.233 254.038 240.708 253.693 240.034C253.352 239.36 253.182 238.572 253.182 237.67C253.182 236.769 253.352 235.979 253.693 235.301C254.038 234.623 254.523 234.097 255.148 233.722C255.773 233.347 256.511 233.159 257.364 233.159C258.216 233.159 258.955 233.347 259.58 233.722C260.205 234.097 260.688 234.623 261.028 235.301C261.373 235.979 261.545 236.769 261.545 237.67C261.545 238.572 261.373 239.36 261.028 240.034C260.688 240.708 260.205 241.233 259.58 241.608C258.955 241.983 258.216 242.17 257.364 242.17ZM257.375 240.523C257.837 240.523 258.223 240.396 258.534 240.142C258.845 239.884 259.076 239.54 259.227 239.108C259.383 238.676 259.46 238.195 259.46 237.665C259.46 237.131 259.383 236.648 259.227 236.216C259.076 235.78 258.845 235.434 258.534 235.176C258.223 234.919 257.837 234.79 257.375 234.79C256.902 234.79 256.508 234.919 256.193 235.176C255.883 235.434 255.65 235.78 255.494 236.216C255.343 236.648 255.267 237.131 255.267 237.665C255.267 238.195 255.343 238.676 255.494 239.108C255.65 239.54 255.883 239.884 256.193 240.142C256.508 240.396 256.902 240.523 257.375 240.523ZM263.291 242V233.273H265.286V234.727H265.376C265.536 234.223 265.808 233.835 266.195 233.562C266.585 233.286 267.03 233.148 267.53 233.148C267.643 233.148 267.77 233.153 267.911 233.165C268.054 233.172 268.174 233.186 268.268 233.205V235.097C268.181 235.066 268.043 235.04 267.854 235.017C267.668 234.991 267.488 234.977 267.314 234.977C266.939 234.977 266.602 235.059 266.303 235.222C266.007 235.381 265.774 235.602 265.604 235.886C265.433 236.17 265.348 236.498 265.348 236.869V242H263.291ZM273.139 242.17C272.264 242.17 271.509 241.989 270.872 241.625C270.24 241.258 269.753 240.739 269.412 240.068C269.071 239.394 268.901 238.6 268.901 237.688C268.901 236.79 269.071 236.002 269.412 235.324C269.757 234.642 270.238 234.112 270.855 233.733C271.473 233.35 272.198 233.159 273.031 233.159C273.569 233.159 274.077 233.246 274.554 233.42C275.035 233.591 275.459 233.856 275.827 234.216C276.198 234.576 276.49 235.034 276.702 235.591C276.914 236.144 277.02 236.803 277.02 237.568V238.199H269.866V236.812H275.048C275.045 236.419 274.959 236.068 274.793 235.761C274.626 235.451 274.393 235.206 274.094 235.028C273.798 234.85 273.454 234.761 273.06 234.761C272.639 234.761 272.27 234.864 271.952 235.068C271.634 235.269 271.385 235.534 271.207 235.864C271.033 236.189 270.944 236.547 270.94 236.938V238.148C270.94 238.655 271.033 239.091 271.219 239.455C271.404 239.814 271.664 240.091 271.997 240.284C272.33 240.473 272.721 240.568 273.168 240.568C273.467 240.568 273.738 240.527 273.98 240.443C274.223 240.356 274.433 240.229 274.611 240.062C274.789 239.896 274.923 239.689 275.014 239.443L276.935 239.659C276.813 240.167 276.582 240.61 276.241 240.989C275.904 241.364 275.473 241.655 274.946 241.864C274.42 242.068 273.817 242.17 273.139 242.17ZM282.729 242V233.273H284.786V242H282.729ZM283.763 232.034C283.437 232.034 283.157 231.926 282.922 231.71C282.687 231.491 282.57 231.227 282.57 230.92C282.57 230.61 282.687 230.347 282.922 230.131C283.157 229.911 283.437 229.801 283.763 229.801C284.092 229.801 284.373 229.911 284.604 230.131C284.839 230.347 284.956 230.61 284.956 230.92C284.956 231.227 284.839 231.491 284.604 231.71C284.373 231.926 284.092 232.034 283.763 232.034ZM288.957 236.886V242H286.901V233.273H288.866V234.756H288.969C289.17 234.267 289.49 233.879 289.929 233.591C290.372 233.303 290.92 233.159 291.571 233.159C292.173 233.159 292.698 233.288 293.145 233.545C293.596 233.803 293.944 234.176 294.19 234.665C294.44 235.153 294.563 235.746 294.56 236.443V242H292.503V236.761C292.503 236.178 292.351 235.722 292.048 235.392C291.749 235.062 291.334 234.898 290.804 234.898C290.444 234.898 290.124 234.977 289.844 235.136C289.567 235.292 289.349 235.517 289.19 235.812C289.035 236.108 288.957 236.466 288.957 236.886ZM301.071 233.273V234.864H295.912V233.273H301.071ZM297.202 242V232.449C297.202 231.862 297.323 231.373 297.565 230.983C297.812 230.593 298.141 230.301 298.554 230.108C298.967 229.915 299.425 229.818 299.929 229.818C300.285 229.818 300.601 229.847 300.878 229.903C301.154 229.96 301.359 230.011 301.491 230.057L301.082 231.648C300.995 231.621 300.885 231.595 300.753 231.568C300.62 231.538 300.473 231.523 300.31 231.523C299.927 231.523 299.656 231.616 299.497 231.801C299.342 231.983 299.264 232.244 299.264 232.585V242H297.202ZM306.161 242.17C305.308 242.17 304.57 241.983 303.945 241.608C303.32 241.233 302.835 240.708 302.49 240.034C302.149 239.36 301.979 238.572 301.979 237.67C301.979 236.769 302.149 235.979 302.49 235.301C302.835 234.623 303.32 234.097 303.945 233.722C304.57 233.347 305.308 233.159 306.161 233.159C307.013 233.159 307.751 233.347 308.376 233.722C309.001 234.097 309.484 234.623 309.825 235.301C310.17 235.979 310.342 236.769 310.342 237.67C310.342 238.572 310.17 239.36 309.825 240.034C309.484 240.708 309.001 241.233 308.376 241.608C307.751 241.983 307.013 242.17 306.161 242.17ZM306.172 240.523C306.634 240.523 307.02 240.396 307.331 240.142C307.642 239.884 307.873 239.54 308.024 239.108C308.179 238.676 308.257 238.195 308.257 237.665C308.257 237.131 308.179 236.648 308.024 236.216C307.873 235.78 307.642 235.434 307.331 235.176C307.02 234.919 306.634 234.79 306.172 234.79C305.698 234.79 305.304 234.919 304.99 235.176C304.679 235.434 304.446 235.78 304.291 236.216C304.14 236.648 304.064 237.131 304.064 237.665C304.064 238.195 304.14 238.676 304.291 239.108C304.446 239.54 304.679 239.884 304.99 240.142C305.304 240.396 305.698 240.523 306.172 240.523Z" fill="white"/>
</svg>
