<svg width="1921" height="2188" viewBox="0 0 1921 2188" fill="none" xmlns="http://www.w3.org/2000/svg">
<g id="Raindrop">
<path id="Vector" d="M1840 20.114C1840 20.3398 1840 20.5656 1840 20.7872C1839.7 30.4043 1826.3 30.4043 1826 20.7872C1826 20.5656 1826 20.3398 1826 20.114C1825.98 17.3468 1826.52 14.6049 1827.59 12.0591C1828.67 9.51324 1830.24 7.21799 1832.23 5.31619C1832.44 5.11322 1832.72 5 1833.01 5C1833.3 5 1833.58 5.11322 1833.79 5.31619C1835.77 7.22063 1837.35 9.51694 1838.42 12.0626C1839.48 14.6082 1840.02 17.3487 1840 20.114V20.114Z" stroke="#64628E" stroke-width="2" stroke-miterlimit="10"/>
<path id="Vector_2" d="M1684 20.114C1684 20.3398 1684 20.5656 1684 20.7872C1683.7 30.4043 1670.3 30.4043 1670 20.7872C1670 20.5656 1670 20.3398 1670 20.114C1669.98 17.3468 1670.52 14.6049 1671.59 12.0591C1672.67 9.51324 1674.24 7.21799 1676.23 5.31619C1676.44 5.11322 1676.72 5 1677.01 5C1677.3 5 1677.58 5.11322 1677.79 5.31619C1679.77 7.22063 1681.35 9.51694 1682.42 12.0626C1683.48 14.6082 1684.02 17.3487 1684 20.114V20.114Z" stroke="#64628E" stroke-width="2" stroke-miterlimit="10"/>
<path id="Vector_3" d="M1727 21.371C1727 21.6753 1727 21.9797 1727 22.2784C1726.59 35.2405 1708.4 35.2405 1708 22.2784C1708 21.9797 1708 21.6753 1708 21.371C1707.97 17.6413 1708.71 13.9457 1710.16 10.5144C1711.62 7.08307 1713.76 3.98946 1716.46 1.42617C1716.74 1.1526 1717.12 1 1717.52 1C1717.91 1 1718.29 1.1526 1718.58 1.42617C1721.27 3.99302 1723.4 7.08806 1724.85 10.5191C1726.3 13.9501 1727.03 17.6439 1727 21.371V21.371Z" stroke="#64628E" stroke-width="2" stroke-miterlimit="10"/>
<path id="Vector_4" d="M725.999 20.114C725.999 20.3398 725.999 20.5656 725.999 20.7872C725.676 30.4043 711.319 30.4043 711.001 20.7872C711.001 20.5656 711.001 20.3398 711.001 20.114C710.979 17.3468 711.56 14.6049 712.709 12.0591C713.857 9.51324 715.548 7.21799 717.677 5.31619C717.902 5.11322 718.202 5 718.513 5C718.825 5 719.124 5.11322 719.35 5.31619C721.473 7.22063 723.159 9.51694 724.302 12.0626C725.446 14.6082 726.024 17.3487 725.999 20.114V20.114Z" stroke="#64628E" stroke-width="2" stroke-miterlimit="10"/>
<path id="Vector_5" d="M1427 20.114C1427 20.3398 1427 20.5656 1427 20.7872C1426.68 30.4043 1412.32 30.4043 1412 20.7872C1412 20.5656 1412 20.3398 1412 20.114C1411.98 17.3468 1412.56 14.6049 1413.71 12.0591C1414.86 9.51324 1416.55 7.21799 1418.68 5.31619C1418.9 5.11322 1419.2 5 1419.51 5C1419.82 5 1420.12 5.11322 1420.35 5.31619C1422.47 7.22063 1424.16 9.51694 1425.3 12.0626C1426.45 14.6082 1427.02 17.3487 1427 20.114V20.114Z" stroke="#64628E" stroke-width="2" stroke-miterlimit="10"/>
<path id="Vector_6" d="M96.9993 19.7711C96.9993 20.0067 96.9993 20.2423 96.9993 20.4736C96.6977 30.5088 83.2981 30.5088 83.0006 20.4736C83.0006 20.2423 83.0006 20.0067 83.0006 19.7711C82.9801 16.8836 83.5227 14.0225 84.5946 11.366C85.6666 8.70947 87.2449 6.31442 89.2314 4.32994C89.4419 4.11814 89.7216 4 90.0123 4C90.3031 4 90.5827 4.11814 90.7932 4.32994C92.7746 6.31718 94.348 8.71333 95.4156 11.3696C96.4832 14.0259 97.0222 16.8856 96.9993 19.7711V19.7711Z" stroke="#64628E" stroke-width="2" stroke-miterlimit="10"/>
<path id="Vector_7" d="M629.999 20.114C629.999 20.3398 629.999 20.5656 629.999 20.7872C629.698 30.4043 616.298 30.4043 616.001 20.7872C616.001 20.5656 616.001 20.3398 616.001 20.114C615.98 17.3468 616.523 14.6049 617.595 12.0591C618.667 9.51324 620.245 7.21799 622.231 5.31619C622.442 5.11322 622.722 5 623.012 5C623.303 5 623.583 5.11322 623.793 5.31619C625.775 7.22063 627.348 9.51694 628.416 12.0626C629.483 14.6082 630.022 17.3487 629.999 20.114V20.114Z" stroke="#64628E" stroke-width="2" stroke-miterlimit="10"/>
<path id="Vector_8" d="M167.999 19.7711C167.999 20.0067 167.999 20.2423 167.999 20.4736C167.698 30.5088 154.298 30.5088 154.001 20.4736C154.001 20.2423 154.001 20.0067 154.001 19.7711C153.98 16.8836 154.523 14.0225 155.595 11.366C156.667 8.70947 158.245 6.31442 160.231 4.32994C160.442 4.11814 160.722 4 161.012 4C161.303 4 161.583 4.11814 161.793 4.32994C163.775 6.31718 165.348 8.71333 166.416 11.3696C167.483 14.0259 168.022 16.8856 167.999 19.7711V19.7711Z" stroke="#64628E" stroke-width="2" stroke-miterlimit="10"/>
<path id="Vector_9" d="M1455 19.7711C1455 20.0067 1455 20.2423 1455 20.4736C1454.7 30.5088 1441.3 30.5088 1441 20.4736C1441 20.2423 1441 20.0067 1441 19.7711C1440.98 16.8836 1441.52 14.0225 1442.59 11.366C1443.67 8.70947 1445.24 6.31442 1447.23 4.32994C1447.44 4.11814 1447.72 4 1448.01 4C1448.3 4 1448.58 4.11814 1448.79 4.32994C1450.77 6.31718 1452.35 8.71333 1453.42 11.3696C1454.48 14.0259 1455.02 16.8856 1455 19.7711V19.7711Z" stroke="#64628E" stroke-width="2" stroke-miterlimit="10"/>
<path id="Vector_10" d="M1299 19.7711C1299 20.0067 1299 20.2423 1299 20.4736C1298.7 30.5088 1285.3 30.5088 1285 20.4736C1285 20.2423 1285 20.0067 1285 19.7711C1284.98 16.8836 1285.52 14.0225 1286.59 11.366C1287.67 8.70947 1289.24 6.31442 1291.23 4.32994C1291.44 4.11814 1291.72 4 1292.01 4C1292.3 4 1292.58 4.11814 1292.79 4.32994C1294.77 6.31718 1296.35 8.71333 1297.42 11.3696C1298.48 14.0259 1299.02 16.8856 1299 19.7711V19.7711Z" stroke="#64628E" stroke-width="2" stroke-miterlimit="10"/>
<path id="Vector_11" d="M1116 20.114C1116 20.3398 1116 20.5656 1116 20.7872C1115.7 30.4043 1102.3 30.4043 1102 20.7872C1102 20.5656 1102 20.3398 1102 20.114C1101.98 17.3468 1102.52 14.6049 1103.59 12.0591C1104.67 9.51324 1106.24 7.21799 1108.23 5.31619C1108.44 5.11322 1108.72 5 1109.01 5C1109.3 5 1109.58 5.11322 1109.79 5.31619C1111.77 7.22063 1113.35 9.51694 1114.42 12.0626C1115.48 14.6082 1116.02 17.3487 1116 20.114V20.114Z" stroke="#64628E" stroke-width="2" stroke-miterlimit="10"/>
<path id="Vector_12" d="M909.999 16.114C909.999 16.3398 909.999 16.5656 909.999 16.7872C909.698 26.4043 896.298 26.4043 896.001 16.7872C896.001 16.5656 896.001 16.3398 896.001 16.114C895.98 13.3468 896.523 10.6049 897.595 8.05906C898.667 5.51324 900.245 3.21799 902.231 1.31619C902.442 1.11322 902.722 1 903.012 1C903.303 1 903.583 1.11322 903.793 1.31619C905.775 3.22063 907.348 5.51694 908.416 8.06255C909.483 10.6082 910.022 13.3487 909.999 16.114V16.114Z" stroke="#64628E" stroke-width="2" stroke-miterlimit="10"/>
<path id="Vector_13" d="M1029 19.7711C1029 20.0067 1029 20.2423 1029 20.4736C1028.7 30.5088 1015.3 30.5088 1015 20.4736C1015 20.2423 1015 20.0067 1015 19.7711C1014.98 16.8836 1015.52 14.0225 1016.59 11.366C1017.67 8.70947 1019.24 6.31442 1021.23 4.32994C1021.44 4.11814 1021.72 4 1022.01 4C1022.3 4 1022.58 4.11814 1022.79 4.32994C1024.77 6.31718 1026.35 8.71333 1027.42 11.3696C1028.48 14.0259 1029.02 16.8856 1029 19.7711V19.7711Z" stroke="#64628E" stroke-width="2" stroke-miterlimit="10"/>
<path id="Vector_14" d="M1610 19.7711C1610 20.0067 1610 20.2423 1610 20.4736C1609.7 30.5088 1596.3 30.5088 1596 20.4736C1596 20.2423 1596 20.0067 1596 19.7711C1595.98 16.8836 1596.52 14.0225 1597.59 11.366C1598.67 8.70947 1600.24 6.31442 1602.23 4.32994C1602.44 4.11814 1602.72 4 1603.01 4C1603.3 4 1603.58 4.11814 1603.79 4.32994C1605.77 6.31718 1607.35 8.71333 1608.42 11.3696C1609.48 14.0259 1610.02 16.8856 1610 19.7711V19.7711Z" stroke="#64628E" stroke-width="2" stroke-miterlimit="10"/>
<path id="Vector_15" d="M243.999 19.7711C243.999 20.0067 243.999 20.2423 243.999 20.4736C243.676 30.5088 229.319 30.5088 229.001 20.4736C229.001 20.2423 229.001 20.0067 229.001 19.7711C228.979 16.8836 229.56 14.0225 230.709 11.366C231.857 8.70947 233.548 6.31442 235.677 4.32994C235.902 4.11814 236.202 4 236.513 4C236.825 4 237.124 4.11814 237.35 4.32994C239.473 6.31718 241.159 8.71333 242.302 11.3696C243.446 14.0259 244.024 16.8856 243.999 19.7711V19.7711Z" stroke="#64628E" stroke-width="2" stroke-miterlimit="10"/>
<path id="Vector_16" d="M810.999 19.7711C810.999 20.0067 810.999 20.2423 810.999 20.4736C810.676 30.5088 796.319 30.5088 796.001 20.4736C796.001 20.2423 796.001 20.0067 796.001 19.7711C795.979 16.8836 796.56 14.0225 797.709 11.366C798.857 8.70947 800.548 6.31442 802.677 4.32994C802.902 4.11814 803.202 4 803.513 4C803.825 4 804.124 4.11814 804.35 4.32994C806.473 6.31718 808.159 8.71333 809.302 11.3696C810.446 14.0259 811.024 16.8856 810.999 19.7711V19.7711Z" stroke="#64628E" stroke-width="2" stroke-miterlimit="10"/>
<path id="Vector_17" d="M1544 19.7711C1544 20.0067 1544 20.2423 1544 20.4736C1543.68 30.5088 1529.32 30.5088 1529 20.4736C1529 20.2423 1529 20.0067 1529 19.7711C1528.98 16.8836 1529.56 14.0225 1530.71 11.366C1531.86 8.70947 1533.55 6.31442 1535.68 4.32994C1535.9 4.11814 1536.2 4 1536.51 4C1536.82 4 1537.12 4.11814 1537.35 4.32994C1539.47 6.31718 1541.16 8.71333 1542.3 11.3696C1543.45 14.0259 1544.02 16.8856 1544 19.7711V19.7711Z" stroke="#64628E" stroke-width="2" stroke-miterlimit="10"/>
<path id="Vector_18" d="M315.999 20.114C315.999 20.3398 315.999 20.5656 315.999 20.7872C315.676 30.4043 301.319 30.4043 301.001 20.7872C301.001 20.5656 301.001 20.3398 301.001 20.114C300.979 17.3468 301.56 14.6049 302.709 12.0591C303.857 9.51324 305.548 7.21799 307.677 5.31619C307.902 5.11322 308.202 5 308.513 5C308.825 5 309.124 5.11322 309.35 5.31619C311.473 7.22063 313.159 9.51694 314.302 12.0626C315.446 14.6082 316.024 17.3487 315.999 20.114V20.114Z" stroke="#64628E" stroke-width="2" stroke-miterlimit="10"/>
<path id="Vector_19" d="M554.999 20.114C554.999 20.3398 554.999 20.5656 554.999 20.7872C554.676 30.4043 540.319 30.4043 540.001 20.7872C540.001 20.5656 540.001 20.3398 540.001 20.114C539.979 17.3468 540.56 14.6049 541.709 12.0591C542.857 9.51324 544.548 7.21799 546.677 5.31619C546.902 5.11322 547.202 5 547.513 5C547.825 5 548.124 5.11322 548.35 5.31619C550.473 7.22063 552.159 9.51694 553.302 12.0626C554.446 14.6082 555.024 17.3487 554.999 20.114V20.114Z" stroke="#64628E" stroke-width="2" stroke-miterlimit="10"/>
<path id="Vector_20" d="M489.999 20.114C489.999 20.3398 489.999 20.5656 489.999 20.7872C489.676 30.4043 475.319 30.4043 475.001 20.7872C475.001 20.5656 475.001 20.3398 475.001 20.114C474.979 17.3468 475.56 14.6049 476.709 12.0591C477.857 9.51324 479.548 7.21799 481.677 5.31619C481.902 5.11322 482.202 5 482.513 5C482.825 5 483.124 5.11322 483.35 5.31619C485.473 7.22063 487.159 9.51694 488.302 12.0626C489.446 14.6082 490.024 17.3487 489.999 20.114V20.114Z" stroke="#64628E" stroke-width="2" stroke-miterlimit="10"/>
<path id="Vector_21" d="M438.999 19.7711C438.999 20.0067 438.999 20.2423 438.999 20.4736C438.698 30.5088 425.298 30.5088 425.001 20.4736C425.001 20.2423 425.001 20.0067 425.001 19.7711C424.98 16.8836 425.523 14.0225 426.595 11.366C427.667 8.70947 429.245 6.31442 431.231 4.32994C431.442 4.11814 431.722 4 432.012 4C432.303 4 432.583 4.11814 432.793 4.32994C434.775 6.31718 436.348 8.71333 437.416 11.3696C438.483 14.0259 439.022 16.8856 438.999 19.7711V19.7711Z" stroke="#64628E" stroke-width="2" stroke-miterlimit="10"/>
<path id="Vector_22" d="M373.999 19.7711C373.999 20.0067 373.999 20.2423 373.999 20.4736C373.698 30.5088 360.298 30.5088 360.001 20.4736C360.001 20.2423 360.001 20.0067 360.001 19.7711C359.98 16.8836 360.523 14.0225 361.595 11.366C362.667 8.70947 364.245 6.31442 366.231 4.32994C366.442 4.11814 366.722 4 367.012 4C367.303 4 367.583 4.11814 367.793 4.32994C369.775 6.31718 371.348 8.71333 372.416 11.3696C373.483 14.0259 374.022 16.8856 373.999 19.7711V19.7711Z" stroke="#64628E" stroke-width="2" stroke-miterlimit="10"/>
<path id="Vector_23" d="M1006 19.7711C1006 20.0067 1006 20.2423 1006 20.4736C1005.7 30.5088 992.298 30.5088 992.001 20.4736C992.001 20.2423 992.001 20.0067 992.001 19.7711C991.98 16.8836 992.523 14.0225 993.595 11.366C994.667 8.70947 996.245 6.31442 998.231 4.32994C998.442 4.11814 998.722 4 999.012 4C999.303 4 999.583 4.11814 999.793 4.32994C1001.77 6.31718 1003.35 8.71333 1004.42 11.3696C1005.48 14.0259 1006.02 16.8856 1006 19.7711V19.7711Z" stroke="#64628E" stroke-width="2" stroke-miterlimit="10"/>
<path id="Vector_24" d="M1501 19.7711C1501 20.0067 1501 20.2423 1501 20.4736C1500.7 30.5088 1487.3 30.5088 1487 20.4736C1487 20.2423 1487 20.0067 1487 19.7711C1486.98 16.8836 1487.52 14.0225 1488.59 11.366C1489.67 8.70947 1491.24 6.31442 1493.23 4.32994C1493.44 4.11814 1493.72 4 1494.01 4C1494.3 4 1494.58 4.11814 1494.79 4.32994C1496.77 6.31718 1498.35 8.71333 1499.42 11.3696C1500.48 14.0259 1501.02 16.8856 1501 19.7711V19.7711Z" stroke="#64628E" stroke-width="2" stroke-miterlimit="10"/>
<path id="Vector_25" d="M1116 19.7711C1116 20.0067 1116 20.2423 1116 20.4736C1115.7 30.5088 1102.3 30.5088 1102 20.4736C1102 20.2423 1102 20.0067 1102 19.7711C1101.98 16.8836 1102.52 14.0225 1103.59 11.366C1104.67 8.70947 1106.24 6.31442 1108.23 4.32994C1108.44 4.11814 1108.72 4 1109.01 4C1109.3 4 1109.58 4.11814 1109.79 4.32994C1111.77 6.31718 1113.35 8.71333 1114.42 11.3696C1115.48 14.0259 1116.02 16.8856 1116 19.7711V19.7711Z" stroke="#64628E" stroke-width="2" stroke-miterlimit="10"/>
<path id="Vector_26" d="M55.9993 19.7711C55.9993 20.0067 55.9993 20.2423 55.9993 20.4736C55.6977 30.5088 42.2981 30.5088 42.0006 20.4736C42.0006 20.2423 42.0006 20.0067 42.0006 19.7711C41.9801 16.8836 42.5227 14.0225 43.5946 11.366C44.6666 8.70947 46.2449 6.31442 48.2314 4.32994C48.4419 4.11814 48.7216 4 49.0123 4C49.3031 4 49.5827 4.11814 49.7932 4.32994C51.7746 6.31718 53.348 8.71333 54.4156 11.3696C55.4832 14.0259 56.0222 16.8856 55.9993 19.7711V19.7711Z" stroke="#64628E" stroke-width="2" stroke-miterlimit="10"/>
<path id="Vector_27" d="M267.999 19.7711C267.999 20.0067 267.999 20.2423 267.999 20.4736C267.698 30.5088 254.298 30.5088 254.001 20.4736C254.001 20.2423 254.001 20.0067 254.001 19.7711C253.98 16.8836 254.523 14.0225 255.595 11.366C256.667 8.70947 258.245 6.31442 260.231 4.32994C260.442 4.11814 260.722 4 261.012 4C261.303 4 261.583 4.11814 261.793 4.32994C263.775 6.31718 265.348 8.71333 266.416 11.3696C267.483 14.0259 268.022 16.8856 267.999 19.7711V19.7711Z" stroke="#64628E" stroke-width="2" stroke-miterlimit="10"/>
<path id="Vector_28" d="M1102 19.7711C1102 20.0067 1102 20.2423 1102 20.4736C1101.7 30.5088 1088.3 30.5088 1088 20.4736C1088 20.2423 1088 20.0067 1088 19.7711C1087.98 16.8836 1088.52 14.0225 1089.59 11.366C1090.67 8.70947 1092.24 6.31442 1094.23 4.32994C1094.44 4.11814 1094.72 4 1095.01 4C1095.3 4 1095.58 4.11814 1095.79 4.32994C1097.77 6.31718 1099.35 8.71333 1100.42 11.3696C1101.48 14.0259 1102.02 16.8856 1102 19.7711V19.7711Z" stroke="#64628E" stroke-width="2" stroke-miterlimit="10"/>
<path id="Vector_29" d="M865.999 19.7711C865.999 20.0067 865.999 20.2423 865.999 20.4736C865.698 30.5088 852.298 30.5088 852.001 20.4736C852.001 20.2423 852.001 20.0067 852.001 19.7711C851.98 16.8836 852.523 14.0225 853.595 11.366C854.667 8.70947 856.245 6.31442 858.231 4.32994C858.442 4.11814 858.722 4 859.012 4C859.303 4 859.583 4.11814 859.793 4.32994C861.775 6.31718 863.348 8.71333 864.416 11.3696C865.483 14.0259 866.022 16.8856 865.999 19.7711V19.7711Z" stroke="#64628E" stroke-width="2" stroke-miterlimit="10"/>
<path id="Vector_30" d="M686.999 19.7711C686.999 20.0067 686.999 20.2423 686.999 20.4736C686.676 30.5088 672.319 30.5088 672.001 20.4736C672.001 20.2423 672.001 20.0067 672.001 19.7711C671.979 16.8836 672.56 14.0225 673.709 11.366C674.857 8.70947 676.548 6.31442 678.677 4.32994C678.902 4.11814 679.202 4 679.513 4C679.825 4 680.124 4.11814 680.35 4.32994C682.473 6.31718 684.159 8.71333 685.302 11.3696C686.446 14.0259 687.024 16.8856 686.999 19.7711V19.7711Z" stroke="#64628E" stroke-width="2" stroke-miterlimit="10"/>
<path id="Vector_31" d="M647.999 19.7711C647.999 20.0067 647.999 20.2423 647.999 20.4736C647.676 30.5088 633.319 30.5088 633.001 20.4736C633.001 20.2423 633.001 20.0067 633.001 19.7711C632.979 16.8836 633.56 14.0225 634.709 11.366C635.857 8.70947 637.548 6.31442 639.677 4.32994C639.902 4.11814 640.202 4 640.513 4C640.825 4 641.124 4.11814 641.35 4.32994C643.473 6.31718 645.159 8.71333 646.302 11.3696C647.446 14.0259 648.024 16.8856 647.999 19.7711V19.7711Z" stroke="#64628E" stroke-width="2" stroke-miterlimit="10"/>
<path id="Vector_32" d="M1888 19.7711C1888 20.0067 1888 20.2423 1888 20.4736C1887.68 30.5088 1873.32 30.5088 1873 20.4736C1873 20.2423 1873 20.0067 1873 19.7711C1872.98 16.8836 1873.56 14.0225 1874.71 11.366C1875.86 8.70947 1877.55 6.31442 1879.68 4.32994C1879.9 4.11814 1880.2 4 1880.51 4C1880.82 4 1881.12 4.11814 1881.35 4.32994C1883.47 6.31718 1885.16 8.71333 1886.3 11.3696C1887.45 14.0259 1888.02 16.8856 1888 19.7711V19.7711Z" stroke="#64628E" stroke-width="2" stroke-miterlimit="10"/>
<path id="Vector_33" d="M15.9992 20.114C15.9992 20.3398 15.9992 20.5656 15.9992 20.7872C15.6761 30.4043 1.31934 30.4043 1.0006 20.7872C1.0006 20.5656 1.0006 20.3398 1.0006 20.114C0.978637 17.3468 1.56002 14.6049 2.70854 12.0591C3.85707 9.51324 5.54815 7.21799 7.6765 5.31619C7.90206 5.11322 8.20166 5 8.5132 5C8.82475 5 9.12434 5.11322 9.3499 5.31619C11.4728 7.22063 13.1585 9.51694 14.3024 12.0626C15.4463 14.6082 16.0238 17.3487 15.9992 20.114V20.114Z" stroke="#64628E" stroke-width="2" stroke-miterlimit="10"/>
<path id="Vector_34" d="M1210 19.7711C1210 20.0067 1210 20.2423 1210 20.4736C1209.7 30.5088 1196.3 30.5088 1196 20.4736C1196 20.2423 1196 20.0067 1196 19.7711C1195.98 16.8836 1196.52 14.0225 1197.59 11.366C1198.67 8.70947 1200.24 6.31442 1202.23 4.32994C1202.44 4.11814 1202.72 4 1203.01 4C1203.3 4 1203.58 4.11814 1203.79 4.32994C1205.77 6.31718 1207.35 8.71333 1208.42 11.3696C1209.48 14.0259 1210.02 16.8856 1210 19.7711V19.7711Z" stroke="#64628E" stroke-width="2" stroke-miterlimit="10"/>
<path id="Vector_35" d="M1793 19.7711C1793 20.0067 1793 20.2423 1793 20.4736C1792.7 30.5088 1779.3 30.5088 1779 20.4736C1779 20.2423 1779 20.0067 1779 19.7711C1778.98 16.8836 1779.52 14.0225 1780.59 11.366C1781.67 8.70947 1783.24 6.31442 1785.23 4.32994C1785.44 4.11814 1785.72 4 1786.01 4C1786.3 4 1786.58 4.11814 1786.79 4.32994C1788.77 6.31718 1790.35 8.71333 1791.42 11.3696C1792.48 14.0259 1793.02 16.8856 1793 19.7711V19.7711Z" stroke="#64628E" stroke-width="2" stroke-miterlimit="10"/>
<path id="Vector_36" d="M770.999 19.7711C770.999 20.0067 770.999 20.2423 770.999 20.4736C770.676 30.5088 756.319 30.5088 756.001 20.4736C756.001 20.2423 756.001 20.0067 756.001 19.7711C755.979 16.8836 756.56 14.0225 757.709 11.366C758.857 8.70947 760.548 6.31442 762.677 4.32994C762.902 4.11814 763.202 4 763.513 4C763.825 4 764.124 4.11814 764.35 4.32994C766.473 6.31718 768.159 8.71333 769.302 11.3696C770.446 14.0259 771.024 16.8856 770.999 19.7711V19.7711Z" stroke="#64628E" stroke-width="2" stroke-miterlimit="10"/>
<path id="Vector_37" d="M1383 19.7711C1383 20.0067 1383 20.2423 1383 20.4736C1382.68 30.5088 1368.32 30.5088 1368 20.4736C1368 20.2423 1368 20.0067 1368 19.7711C1367.98 16.8836 1368.56 14.0225 1369.71 11.366C1370.86 8.70947 1372.55 6.31442 1374.68 4.32994C1374.9 4.11814 1375.2 4 1375.51 4C1375.82 4 1376.12 4.11814 1376.35 4.32994C1378.47 6.31718 1380.16 8.71333 1381.3 11.3696C1382.45 14.0259 1383.02 16.8856 1383 19.7711V19.7711Z" stroke="#64628E" stroke-width="2" stroke-miterlimit="10"/>
<path id="Vector_38" d="M574.999 19.7711C574.999 20.0067 574.999 20.2423 574.999 20.4736C574.676 30.5088 560.319 30.5088 560.001 20.4736C560.001 20.2423 560.001 20.0067 560.001 19.7711C559.979 16.8836 560.56 14.0225 561.709 11.366C562.857 8.70947 564.548 6.31442 566.677 4.32994C566.902 4.11814 567.202 4 567.513 4C567.825 4 568.124 4.11814 568.35 4.32994C570.473 6.31718 572.159 8.71333 573.302 11.3696C574.446 14.0259 575.024 16.8856 574.999 19.7711V19.7711Z" stroke="#64628E" stroke-width="2" stroke-miterlimit="10"/>
<path id="Vector_39" d="M1240 20.114C1240 20.3398 1240 20.5656 1240 20.7872C1239.7 30.4043 1226.3 30.4043 1226 20.7872C1226 20.5656 1226 20.3398 1226 20.114C1225.98 17.3468 1226.52 14.6049 1227.59 12.0591C1228.67 9.51324 1230.24 7.21799 1232.23 5.31619C1232.44 5.11322 1232.72 5 1233.01 5C1233.3 5 1233.58 5.11322 1233.79 5.31619C1235.77 7.22063 1237.35 9.51694 1238.42 12.0626C1239.48 14.6082 1240.02 17.3487 1240 20.114V20.114Z" stroke="#64628E" stroke-width="2" stroke-miterlimit="10"/>
<path id="Vector_40" d="M403.999 20.114C403.999 20.3398 403.999 20.5656 403.999 20.7872C403.698 30.4043 390.298 30.4043 390.001 20.7872C390.001 20.5656 390.001 20.3398 390.001 20.114C389.98 17.3468 390.523 14.6049 391.595 12.0591C392.667 9.51324 394.245 7.21799 396.231 5.31619C396.442 5.11322 396.722 5 397.012 5C397.303 5 397.583 5.11322 397.793 5.31619C399.775 7.22063 401.348 9.51694 402.416 12.0626C403.483 14.6082 404.022 17.3487 403.999 20.114V20.114Z" stroke="#64628E" stroke-width="2" stroke-miterlimit="10"/>
<path id="Vector_41" d="M1501 19.7711C1501 20.0067 1501 20.2423 1501 20.4736C1500.7 30.5088 1487.3 30.5088 1487 20.4736C1487 20.2423 1487 20.0067 1487 19.7711C1486.98 16.8836 1487.52 14.0225 1488.59 11.366C1489.67 8.70947 1491.24 6.31442 1493.23 4.32994C1493.44 4.11814 1493.72 4 1494.01 4C1494.3 4 1494.58 4.11814 1494.79 4.32994C1496.77 6.31718 1498.35 8.71333 1499.42 11.3696C1500.48 14.0259 1501.02 16.8856 1501 19.7711V19.7711Z" stroke="#64628E" stroke-width="2" stroke-miterlimit="10"/>
<path id="Vector_42" d="M1345 19.7711C1345 20.0067 1345 20.2423 1345 20.4736C1344.7 30.5088 1331.3 30.5088 1331 20.4736C1331 20.2423 1331 20.0067 1331 19.7711C1330.98 16.8836 1331.52 14.0225 1332.59 11.366C1333.67 8.70947 1335.24 6.31442 1337.23 4.32994C1337.44 4.11814 1337.72 4 1338.01 4C1338.3 4 1338.58 4.11814 1338.79 4.32994C1340.77 6.31718 1342.35 8.71333 1343.42 11.3696C1344.48 14.0259 1345.02 16.8856 1345 19.7711V19.7711Z" stroke="#64628E" stroke-width="2" stroke-miterlimit="10"/>
<path id="Vector_43" d="M1179 19.7711C1179 20.0067 1179 20.2423 1179 20.4736C1178.7 30.5088 1165.3 30.5088 1165 20.4736C1165 20.2423 1165 20.0067 1165 19.7711C1164.98 16.8836 1165.52 14.0225 1166.59 11.366C1167.67 8.70947 1169.24 6.31442 1171.23 4.32994C1171.44 4.11814 1171.72 4 1172.01 4C1172.3 4 1172.58 4.11814 1172.79 4.32994C1174.77 6.31718 1176.35 8.71333 1177.42 11.3696C1178.48 14.0259 1179.02 16.8856 1179 19.7711V19.7711Z" stroke="#64628E" stroke-width="2" stroke-miterlimit="10"/>
<path id="CenterDrop" d="M967.999 19.7711C967.999 20.0067 967.999 20.2423 967.999 20.4736C967.698 30.5088 954.298 30.5088 954.001 20.4736C954.001 20.2423 954.001 20.0067 954.001 19.7711C953.98 16.8836 954.523 14.0225 955.595 11.366C956.667 8.70947 958.245 6.31442 960.231 4.32994C960.442 4.11814 960.722 4 961.012 4C961.303 4 961.583 4.11814 961.793 4.32994C963.775 6.31718 965.348 8.71333 966.416 11.3696C967.483 14.0259 968.022 16.8856 967.999 19.7711Z" stroke="#64628E" stroke-width="2" stroke-miterlimit="10"/>
</g>
</svg>
